<?xml version="1.0" encoding="UTF-8"?>
<!DOCTYPE svg PUBLIC "-//W3C//DTD SVG 1.1//EN" "http://www.w3.org/Graphics/SVG/1.1/DTD/svg11.dtd">
<!-- Creator: CorelDRAW 2020 (64 Bit) -->
<svg xmlns="http://www.w3.org/2000/svg" xml:space="preserve" width="36.4382mm" height="12.24mm" version="1.1" style="shape-rendering:geometricPrecision; text-rendering:geometricPrecision; image-rendering:optimizeQuality; fill-rule:evenodd; clip-rule:evenodd"
viewBox="0 0 706.91 237.46"
 xmlns:xlink="http://www.w3.org/1999/xlink"
 xmlns:xodm="http://www.corel.com/coreldraw/odm/2003">
 <defs>
  <style type="text/css">
   <![CDATA[
    .fil0 {fill:#FEFEFE}
   ]]>
  </style>
 </defs>
 <g id="Camada_x0020_1">
  <metadata id="CorelCorpID_0Corel-Layer"/>
  <path class="fil0" d="M6.6 180.94l62.62 -0.17c3.64,-0.01 6.62,2.95 6.63,6.59 0.01,3.64 -2.96,6.62 -6.59,6.63l-62.62 0.17c-3.64,0.01 -6.62,-2.96 -6.63,-6.6 -0.01,-3.64 2.95,-6.62 6.59,-6.63zm321.53 0.75l0.32 0 40.91 -0.01c3.59,-0 6.52,2.93 6.52,6.51l0 0c-0,3.58 -2.93,6.52 -6.52,6.52l-40.91 0.01c-10.9,0 -14.31,3.42 -14.3,14.31 0.01,10.72 3.31,14.19 13.81,14.29l0.02 0 0.17 0 41.24 -0.02c3.58,0 6.52,2.93 6.52,6.51l0 0c0,3.59 -2.93,6.52 -6.52,6.52l-40.91 0.01 0 0c-20.83,0.01 -27.35,-6.51 -27.36,-27.33 -0.01,-20.65 6.41,-27.22 26.83,-27.34l0.18 -0.01zm82.75 0.46l0.32 0 2.22 0 0 -0 6.97 0 5.86 -0 0 0 5.06 0 0.32 0 0.18 0.01c20.43,0.11 26.84,6.77 26.83,27.66 -0.01,21.06 -6.53,27.65 -27.35,27.64l0 -0 -8.88 -0 -11.2 0 0 0c-20.83,0 -27.35,-6.58 -27.35,-27.64 -0.01,-20.89 6.4,-27.55 26.83,-27.66l0.18 -0.01zm173.06 -0.28l1.92 0 5.86 -0 0 0 5.06 0 0.32 0 0.18 0c20.43,0.11 26.84,6.77 26.84,27.66 -0.01,21.06 -6.53,27.65 -27.36,27.65l0 -0.01 -8.88 -0 -3.95 0 0 -0.06 -27.12 0c-0.29,0.04 -0.59,0.06 -0.89,0.06l-0 0c-3.57,0 -6.51,-2.92 -6.51,-6.5l0 -42.16c0,-3.58 2.93,-6.51 6.51,-6.51l0 0c0.3,0 0.6,0.02 0.89,0.06l27.12 0 0 -0.2zm75.2 -0.27l0.33 0 2.22 0 0 -0.01 6.97 0.01 5.86 -0.01 0 0.01 5.06 0 0.33 0 0.18 0.01c20.43,0.12 26.84,6.77 26.83,27.66 -0.01,21.06 -6.53,27.65 -27.35,27.64l0 -0 -8.88 -0.01 -11.2 0.01 0 0c-20.83,0.01 -27.35,-6.58 -27.36,-27.64 -0,-20.89 6.41,-27.54 26.84,-27.66l0.18 -0.01zm-156 -0.27l5.86 -0 0 0 5.06 0 0.33 0 0.18 0c16.03,0.09 26.84,5.11 26.84,22.89l0 4.77 0 20.87c0,3.72 -2.96,6.77 -6.57,6.77l-0.01 0c-3.6,0 -6.56,-3.05 -6.56,-6.77l0 -23.81c-0.58,-8.19 -3.92,-11.17 -12.52,-11.5l-0.05 0 -36.04 0 0 35.58c0,3.56 -2.94,6.5 -6.51,6.5l-0.01 0c-3.57,0 -6.51,-2.93 -6.51,-6.5l0 -42.16c0,-3.58 2.93,-6.51 6.51,-6.51l0.01 0c0.3,0 0.6,0.02 0.88,0.06l29.11 0 0 -0.2zm165.51 13.45l-9.19 0c-10.9,0 -14.31,3.46 -14.3,14.48 0.01,10.84 3.31,14.36 13.81,14.46l0.02 0 0.17 0 2.52 0 0 -0.01 6.96 0 5.87 -0 0 0 5.37 0 0.17 -0 0.02 0c10.5,-0.1 13.8,-3.61 13.81,-14.46 0,-11.02 -3.4,-14.47 -14.3,-14.48l-10.92 -0zm-84.71 29.32l0 -0.11 1.91 0 5.87 0 0 0 5.37 0 0.17 -0 0.02 0c10.5,-0.1 13.8,-3.61 13.81,-14.46 0,-10.43 -3.05,-14.08 -12.62,-14.44l-36.02 0 0 29.01 21.5 0zm-163.54 -28.77l-9.19 0c-10.9,0 -14.3,3.46 -14.3,14.48 0.01,10.84 3.31,14.35 13.81,14.46l0.02 0 0.17 0 2.52 0 0 -0.01 6.96 0 5.87 0 0 0 5.37 0 0.17 -0 0.02 0c10.5,-0.1 13.8,-3.61 13.81,-14.46 0,-11.02 -3.41,-14.47 -14.3,-14.48l-10.92 -0zm-413.74 6.57l5.11 -0.01 57.51 -0.16c3.64,-0.01 6.62,2.96 6.63,6.59 0,3.64 -2.96,6.63 -6.59,6.63l-55.41 0.15c1.38,5.88 5.25,7.97 13.43,8.03l0.02 0 0.17 -0 0.79 -0 5.24 -0.02 35.79 -0.1c3.63,-0.01 6.62,2.96 6.63,6.6l0 0c0.01,3.64 -2.96,6.62 -6.59,6.63l-29.82 0.08 -14.44 0c-18.94,-0.53 -24.99,-7.45 -25.04,-27.63l0 -0.34 -0 0 -0.02 -6.44 6.61 -0.02zm183.76 -21.14l0.33 0 2.23 0 0 -0.01 7.01 0 5.89 -0 0 0 5.08 0 0.33 0 0.18 0c20.53,0.12 26.97,6.81 26.96,27.8 -0.01,21.17 -6.56,27.79 -27.49,27.79l0 -0 -8.92 -0 -11.25 0 0 0c-20.93,0.01 -27.48,-6.62 -27.49,-27.79 -0.01,-21 6.44,-27.69 26.96,-27.8l0.18 -0zm9.56 13.25l-9.23 0c-10.95,0 -14.37,3.47 -14.37,14.55 0.01,10.9 3.33,14.43 13.87,14.53l0.01 0 0.17 0 2.54 0 0 -0.01 6.99 0 5.9 -0 0 0.01 5.39 0 0.17 0 0.02 0c10.55,-0.1 13.87,-3.63 13.87,-14.53 0,-11.08 -3.42,-14.55 -14.37,-14.55l-10.97 -0zm-108.29 -10.64l26.82 35.39 26.82 -35.39c2.2,-2.89 6.36,-3.47 9.26,-1.28 2.9,2.2 3.47,6.37 1.28,9.26l-31.57 41.66c-0.43,0.76 -1.02,1.46 -1.76,2.02 -1.18,0.89 -2.56,1.33 -3.95,1.33l-0.01 0 -0.15 0 -0.01 0c-1.38,-0 -2.77,-0.44 -3.95,-1.33 -0.74,-0.56 -1.33,-1.25 -1.76,-2.02l-31.57 -41.66c-2.19,-2.89 -1.62,-7.07 1.28,-9.26 2.9,-2.2 7.06,-1.62 9.26,1.28z"/>
  <path class="fil0" d="M184.34 0.25l189.03 -0.25c-17.89,5.13 -28.24,15.53 -33.33,33.46l-155.62 0.19c-9.19,0.03 -16.71,-7.47 -16.73,-16.65 -0.03,-9.18 7.46,-16.71 16.65,-16.74zm234.26 0.95l0.81 0 103.3 -0.03c9.06,-0 16.47,7.4 16.47,16.44l0.01 0.01c-0.01,9.04 -7.41,16.45 -16.47,16.45l-103.3 0.03c-27.52,0 -36.12,8.63 -36.12,36.12 0.02,27.07 8.36,35.83 34.86,36.09l0.04 0 0.43 0.01 104.12 -0.04c9.05,0 16.46,7.4 16.46,16.44l0 0.01c0.01,9.05 -7.41,16.46 -16.45,16.47l-103.3 0.03 0 0.01c-52.59,0.02 -69.06,-16.43 -69.08,-68.99 -0.01,-52.13 16.17,-68.74 67.76,-69.02l0.46 -0.02zm-234.11 51.95l12.91 -0.03 139.31 -0.16c-0.46,5.31 -0.67,11.07 -0.67,17.29 0,5.77 0.19,11.12 0.58,16.1l-133.86 0.14c3.48,14.85 13.27,20.12 33.91,20.28l0.04 0 0.42 -0 2 -0.01 13.24 -0.04 87.58 -0.05c4.91,17.61 14.82,28.02 31.85,33.34l-55.48 0.07 -85.28 0c-47.82,-1.34 -63.08,-18.82 -63.22,-69.76l0 -0.86 -0.01 0 -0.04 -16.26 16.7 -0.04z"/>
 </g>
</svg>
