<?xml version="1.0" encoding="UTF-8"?>
<!DOCTYPE svg PUBLIC "-//W3C//DTD SVG 1.1//EN" "http://www.w3.org/Graphics/SVG/1.1/DTD/svg11.dtd">
<!-- Creator: CorelDRAW 2020 (64 Bit) -->
<svg xmlns="http://www.w3.org/2000/svg" xml:space="preserve" width="65.2771mm" height="24.6119mm" version="1.1" style="shape-rendering:geometricPrecision; text-rendering:geometricPrecision; image-rendering:optimizeQuality; fill-rule:evenodd; clip-rule:evenodd"
viewBox="0 0 7716.14 2909.27"
 xmlns:xlink="http://www.w3.org/1999/xlink"
 xmlns:xodm="http://www.corel.com/coreldraw/odm/2003">
 <defs>
  <style type="text/css">
   <![CDATA[
    .fil1 {fill:#4B4B4D}
    .fil0 {fill:#9D2731}
   ]]>
  </style>
 </defs>
 <g id="Camada_x0020_1">
  <metadata id="CorelCorpID_0Corel-Layer"/>
  <path class="fil0" d="M345.84 5.2l3925.94 -5.2c-371.54,106.54 -586.5,322.54 -692.23,694.92l-3232.06 3.95c-190.87,0.6 -347.04,-155.12 -347.48,-345.79 -0.61,-190.67 154.92,-347.04 345.79,-347.68l0.04 -0.2zm4865.31 19.74l16.84 0 2145.45 -0.6c188.17,0 342.09,153.67 342.09,341.44l0.2 0.2c-0.2,187.76 -153.92,341.64 -342.09,341.64l-2145.45 0.6c-571.55,0 -750.16,179.22 -750.16,750.17 0.4,562.2 173.62,744.15 724.01,749.56l0.84 0 8.95 0.2 2162.46 -0.85c187.96,0 341.84,153.68 341.84,341.44l0 0.2c0.2,187.97 -153.92,341.85 -341.64,342.09l-2145.45 0.6 0 0.2c-1092.25,0.4 -1434.29,-341.24 -1434.74,-1432.83 -0.2,-1082.7 335.83,-1427.64 1407.29,-1433.48l9.55 -0.4 0 -0.17z"/>
  <path class="fil1" d="M348.94 1103.85l268.14 -0.6 2893.33 -3.31c-9.55,110.29 -13.9,229.91 -13.9,359.09 0,119.83 3.95,230.96 12.05,334.39l-2780.14 2.9c72.29,308.43 275.61,417.87 704.27,421.18l0.85 0 8.7 0 41.55 -0.2 274.99 -0.85 1818.95 -1.04c101.99,365.73 307.8,581.94 661.48,692.41l-1152.24 1.45 -1771.17 0c-993.17,-27.84 -1310.11,-390.87 -1313.01,-1448.84l0 -17.85 -0.2 0 -0.85 -337.69 346.84 -0.84 0.37 -0.2z"/>
 </g>
</svg>
