<svg width="716" height="632" viewBox="0 0 716 632" fill="none" xmlns="http://www.w3.org/2000/svg">
<path d="M344 264C340.08 316.87 300 360 256 360C212 360 171.85 316.88 168 264C164 209 203 168 256 168C309 168 348 210 344 264Z" stroke="currentColor" stroke-width="32" stroke-linecap="round" stroke-linejoin="round"/>
<path d="M256 424C169 424 80.7 472 64.36 562.6C62.39 573.52 68.57 584 80 584H432C443.44 584 449.62 573.52 447.65 562.6C431.3 472 343 424 256 424Z" stroke="currentColor" stroke-width="32" stroke-miterlimit="10"/>
<path d="M539 28V316M683 172H395" stroke="currentColor" stroke-width="32" stroke-linecap="round" stroke-linejoin="round"/>
</svg>
