<svg width="681" height="694" viewBox="0 0 681 694" fill="none" xmlns="http://www.w3.org/2000/svg">
<path d="M176 598V662M80 214H272C280.487 214 288.626 217.371 294.627 223.373C300.629 229.374 304 237.513 304 246V658C304 659.061 303.579 660.078 302.828 660.828C302.078 661.579 301.061 662 300 662H48V246C48 237.513 51.3714 229.374 57.3726 223.373C63.3737 217.371 71.5131 214 80 214V214ZM320 374H432C440.487 374 448.626 377.371 454.627 383.373C460.629 389.374 464 397.513 464 406V662H304V390C304 385.757 305.686 381.687 308.686 378.686C311.687 375.686 315.757 374 320 374Z" stroke="currentColor" stroke-width="32" stroke-linecap="round" stroke-linejoin="round"/>
<path d="M98.08 613.87C94.7663 614.303 91.4001 613.688 88.4538 612.111C85.5075 610.534 83.129 608.074 81.6522 605.076C80.1753 602.078 79.6743 598.693 80.2194 595.395C80.7645 592.098 82.3283 589.055 84.6914 586.691C87.0545 584.328 90.0983 582.764 93.3955 582.219C96.6926 581.674 100.078 582.175 103.076 583.652C106.074 585.129 108.534 587.507 110.111 590.454C111.688 593.4 112.303 596.766 111.87 600.08C111.413 603.577 109.813 606.825 107.319 609.319C104.825 611.813 101.577 613.413 98.08 613.87V613.87ZM98.08 533.87C94.7663 534.303 91.4001 533.688 88.4538 532.111C85.5075 530.534 83.129 528.074 81.6522 525.076C80.1753 522.078 79.6743 518.693 80.2194 515.395C80.7645 512.098 82.3283 509.055 84.6914 506.691C87.0545 504.328 90.0983 502.764 93.3955 502.219C96.6926 501.674 100.078 502.175 103.076 503.652C106.074 505.129 108.534 507.507 110.111 510.454C111.688 513.4 112.303 516.766 111.87 520.08C111.413 523.577 109.813 526.825 107.319 529.319C104.825 531.813 101.577 533.413 98.08 533.87V533.87ZM98.08 453.87C94.7663 454.303 91.4001 453.688 88.4538 452.111C85.5075 450.534 83.129 448.074 81.6522 445.076C80.1753 442.078 79.6743 438.693 80.2194 435.395C80.7645 432.098 82.3283 429.055 84.6914 426.691C87.0545 424.328 90.0983 422.764 93.3955 422.219C96.6926 421.674 100.078 422.175 103.076 423.652C106.074 425.129 108.534 427.507 110.111 430.454C111.688 433.4 112.303 436.766 111.87 440.08C111.413 443.577 109.813 446.825 107.319 449.319C104.825 451.813 101.577 453.413 98.08 453.87V453.87ZM98.08 373.87C94.7663 374.303 91.4001 373.688 88.4538 372.111C85.5075 370.534 83.129 368.074 81.6522 365.076C80.1753 362.078 79.6743 358.693 80.2194 355.395C80.7645 352.098 82.3283 349.055 84.6914 346.691C87.0545 344.328 90.0983 342.764 93.3955 342.219C96.6926 341.674 100.078 342.175 103.076 343.652C106.074 345.129 108.534 347.507 110.111 350.454C111.688 353.4 112.303 356.766 111.87 360.08C111.413 363.577 109.813 366.825 107.319 369.319C104.825 371.813 101.577 373.413 98.08 373.87V373.87ZM98.08 293.87C94.7663 294.303 91.4001 293.688 88.4538 292.111C85.5075 290.534 83.129 288.074 81.6522 285.076C80.1753 282.078 79.6743 278.693 80.2194 275.395C80.7645 272.098 82.3283 269.055 84.6914 266.691C87.0545 264.328 90.0983 262.764 93.3955 262.219C96.6926 261.674 100.078 262.175 103.076 263.652C106.074 265.129 108.534 267.507 110.111 270.454C111.688 273.4 112.303 276.766 111.87 280.08C111.413 283.577 109.813 286.825 107.319 289.319C104.825 291.813 101.577 293.413 98.08 293.87V293.87ZM178.08 533.87C174.766 534.303 171.4 533.688 168.454 532.111C165.507 530.534 163.129 528.074 161.652 525.076C160.175 522.078 159.674 518.693 160.219 515.395C160.765 512.098 162.328 509.055 164.691 506.691C167.055 504.328 170.098 502.764 173.395 502.219C176.693 501.674 180.078 502.175 183.076 503.652C186.074 505.129 188.534 507.507 190.111 510.454C191.688 513.4 192.303 516.766 191.87 520.08C191.413 523.577 189.813 526.825 187.319 529.319C184.825 531.813 181.577 533.413 178.08 533.87V533.87ZM178.08 453.87C174.766 454.303 171.4 453.688 168.454 452.111C165.507 450.534 163.129 448.074 161.652 445.076C160.175 442.078 159.674 438.693 160.219 435.395C160.765 432.098 162.328 429.055 164.691 426.691C167.055 424.328 170.098 422.764 173.395 422.219C176.693 421.674 180.078 422.175 183.076 423.652C186.074 425.129 188.534 427.507 190.111 430.454C191.688 433.4 192.303 436.766 191.87 440.08C191.413 443.577 189.813 446.825 187.319 449.319C184.825 451.813 181.577 453.413 178.08 453.87V453.87ZM178.08 373.87C174.766 374.303 171.4 373.688 168.454 372.111C165.507 370.534 163.129 368.074 161.652 365.076C160.175 362.078 159.674 358.693 160.219 355.395C160.765 352.098 162.328 349.055 164.691 346.691C167.055 344.328 170.098 342.764 173.395 342.219C176.693 341.674 180.078 342.175 183.076 343.652C186.074 345.129 188.534 347.507 190.111 350.454C191.688 353.4 192.303 356.766 191.87 360.08C191.413 363.577 189.813 366.825 187.319 369.319C184.825 371.813 181.577 373.413 178.08 373.87V373.87ZM178.08 293.87C174.766 294.303 171.4 293.688 168.454 292.111C165.507 290.534 163.129 288.074 161.652 285.076C160.175 282.078 159.674 278.693 160.219 275.395C160.765 272.098 162.328 269.055 164.691 266.691C167.055 264.328 170.098 262.764 173.395 262.219C176.693 261.674 180.078 262.175 183.076 263.652C186.074 265.129 188.534 267.507 190.111 270.454C191.688 273.4 192.303 276.766 191.87 280.08C191.413 283.577 189.813 286.825 187.319 289.319C184.825 291.813 181.577 293.413 178.08 293.87V293.87ZM258.08 613.87C254.766 614.303 251.4 613.688 248.454 612.111C245.507 610.534 243.129 608.074 241.652 605.076C240.175 602.078 239.674 598.693 240.219 595.395C240.764 592.098 242.328 589.055 244.691 586.691C247.055 584.328 250.098 582.764 253.395 582.219C256.693 581.674 260.078 582.175 263.076 583.652C266.074 585.129 268.534 587.507 270.111 590.454C271.688 593.4 272.303 596.766 271.87 600.08C271.413 603.577 269.813 606.825 267.319 609.319C264.825 611.813 261.577 613.413 258.08 613.87V613.87ZM258.08 533.87C254.766 534.303 251.4 533.688 248.454 532.111C245.507 530.534 243.129 528.074 241.652 525.076C240.175 522.078 239.674 518.693 240.219 515.395C240.764 512.098 242.328 509.055 244.691 506.691C247.055 504.328 250.098 502.764 253.395 502.219C256.693 501.674 260.078 502.175 263.076 503.652C266.074 505.129 268.534 507.507 270.111 510.454C271.688 513.4 272.303 516.766 271.87 520.08C271.413 523.577 269.813 526.825 267.319 529.319C264.825 531.813 261.577 533.413 258.08 533.87V533.87ZM258.08 453.87C254.766 454.303 251.4 453.688 248.454 452.111C245.507 450.534 243.129 448.074 241.652 445.076C240.175 442.078 239.674 438.693 240.219 435.395C240.764 432.098 242.328 429.055 244.691 426.691C247.055 424.328 250.098 422.764 253.395 422.219C256.693 421.674 260.078 422.175 263.076 423.652C266.074 425.129 268.534 427.507 270.111 430.454C271.688 433.4 272.303 436.766 271.87 440.08C271.413 443.577 269.813 446.825 267.319 449.319C264.825 451.813 261.577 453.413 258.08 453.87V453.87Z" fill="currentColor"/>
<path d="M267.335 369.327C273.564 363.098 273.538 352.973 267.278 346.713C261.018 340.453 250.894 340.428 244.665 346.657C238.436 352.886 238.462 363.01 244.722 369.27C250.982 375.53 261.106 375.556 267.335 369.327Z" fill="currentColor"/>
<path d="M258.08 293.87C254.766 294.303 251.4 293.688 248.454 292.111C245.507 290.534 243.129 288.074 241.652 285.076C240.175 282.078 239.674 278.693 240.219 275.395C240.764 272.098 242.328 269.055 244.691 266.691C247.055 264.328 250.098 262.764 253.395 262.219C256.693 261.674 260.078 262.175 263.076 263.652C266.074 265.129 268.534 267.507 270.111 270.454C271.688 273.4 272.303 276.766 271.87 280.08C271.413 283.577 269.813 286.825 267.319 289.319C264.825 291.813 261.577 293.413 258.08 293.87V293.87ZM400 582C396.836 582 393.742 582.938 391.111 584.696C388.48 586.455 386.429 588.953 385.218 591.877C384.007 594.801 383.69 598.018 384.307 601.121C384.925 604.225 386.449 607.076 388.686 609.314C390.924 611.551 393.775 613.075 396.879 613.693C399.982 614.31 403.199 613.993 406.123 612.782C409.047 611.571 411.545 609.52 413.304 606.889C415.062 604.258 416 601.165 416 598C416 593.757 414.314 589.687 411.314 586.686C408.313 583.686 404.243 582 400 582ZM400 502C396.836 502 393.742 502.938 391.111 504.696C388.48 506.455 386.429 508.953 385.218 511.877C384.007 514.801 383.69 518.018 384.307 521.121C384.925 524.225 386.449 527.076 388.686 529.314C390.924 531.551 393.775 533.075 396.879 533.693C399.982 534.31 403.199 533.993 406.123 532.782C409.047 531.571 411.545 529.52 413.304 526.889C415.062 524.258 416 521.165 416 518C416 513.757 414.314 509.687 411.314 506.686C408.313 503.686 404.243 502 400 502ZM400 422C396.836 422 393.742 422.938 391.111 424.696C388.48 426.455 386.429 428.953 385.218 431.877C384.007 434.801 383.69 438.018 384.307 441.121C384.925 444.225 386.449 447.076 388.686 449.314C390.924 451.551 393.775 453.075 396.879 453.693C399.982 454.31 403.199 453.993 406.123 452.782C409.047 451.571 411.545 449.52 413.304 446.889C415.062 444.258 416 441.165 416 438C416 433.757 414.314 429.687 411.314 426.686C408.313 423.686 404.243 422 400 422ZM336 582C332.836 582 329.742 582.938 327.111 584.696C324.48 586.455 322.429 588.953 321.218 591.877C320.007 594.801 319.69 598.018 320.307 601.121C320.925 604.225 322.449 607.076 324.686 609.314C326.924 611.551 329.775 613.075 332.879 613.693C335.982 614.31 339.199 613.993 342.123 612.782C345.047 611.571 347.545 609.52 349.304 606.889C351.062 604.258 352 601.165 352 598C352 593.757 350.314 589.687 347.314 586.686C344.313 583.686 340.243 582 336 582ZM336 502C332.836 502 329.742 502.938 327.111 504.696C324.48 506.455 322.429 508.953 321.218 511.877C320.007 514.801 319.69 518.018 320.307 521.121C320.925 524.225 322.449 527.076 324.686 529.314C326.924 531.551 329.775 533.075 332.879 533.693C335.982 534.31 339.199 533.993 342.123 532.782C345.047 531.571 347.545 529.52 349.304 526.889C351.062 524.258 352 521.165 352 518C352 513.757 350.314 509.687 347.314 506.686C344.313 503.686 340.243 502 336 502ZM336 422C332.836 422 329.742 422.938 327.111 424.696C324.48 426.455 322.429 428.953 321.218 431.877C320.007 434.801 319.69 438.018 320.307 441.121C320.925 444.225 322.449 447.076 324.686 449.314C326.924 451.551 329.775 453.075 332.879 453.693C335.982 454.31 339.199 453.993 342.123 452.782C345.047 451.571 347.545 449.52 349.304 446.889C351.062 444.258 352 441.165 352 438C352 433.757 350.314 429.687 347.314 426.686C344.313 423.686 340.243 422 336 422Z" fill="currentColor"/>
<path d="M472 59V347M616 203H328" stroke="currentColor" stroke-width="32" stroke-linecap="round" stroke-linejoin="round"/>
</svg>
