<svg width="688" height="656" viewBox="0 0 688 656" fill="none" xmlns="http://www.w3.org/2000/svg">
<path d="M528 16V304M672 160H384" stroke="currentColor" stroke-width="32" stroke-linecap="round" stroke-linejoin="round"/>
<path d="M336 591.86V248C335.982 241.64 333.447 235.547 328.95 231.05C324.453 226.553 318.36 224.018 312 224H40C33.6405 224.018 27.5467 226.553 23.0498 231.05C18.553 235.547 16.0185 241.64 16 248V600C16.0317 610.599 20.2561 620.755 27.7507 628.249C35.2453 635.744 45.4011 639.968 56 640H384" stroke="currentColor" stroke-width="32" stroke-linejoin="round"/>
<path d="M384 640C371.27 640 359.061 634.943 350.059 625.941C341.057 616.939 336 604.73 336 592V304H408C414.365 304 420.47 306.529 424.971 311.029C429.471 315.53 432 321.635 432 328V592C432 604.73 426.943 616.939 417.941 625.941C408.939 634.943 396.73 640 384 640Z" stroke="currentColor" stroke-width="32" stroke-linejoin="round"/>
<path d="M208 304H272M208 368H272M80 432H272M80 496H272M80 560H272" stroke="currentColor" stroke-width="32" stroke-linecap="round" stroke-linejoin="round"/>
<path d="M144 384H80C75.7565 384 71.6869 382.314 68.6863 379.314C65.6857 376.313 64 372.243 64 368V304C64 299.757 65.6857 295.687 68.6863 292.686C71.6869 289.686 75.7565 288 80 288H144C148.243 288 152.313 289.686 155.314 292.686C158.314 295.687 160 299.757 160 304V368C160 372.243 158.314 376.313 155.314 379.314C152.313 382.314 148.243 384 144 384Z" fill="currentColor"/>
</svg>
