<svg width="600" height="597" viewBox="0 0 600 597" fill="none" xmlns="http://www.w3.org/2000/svg">
<path d="M255.995 217.94C261.517 217.94 265.995 213.462 265.995 207.94V157C265.995 151.478 261.518 147 255.995 147C250.472 147 245.995 151.477 245.995 157V207.94C245.996 213.462 250.473 217.94 255.995 217.94Z" fill="currentColor"/>
<path d="M180.812 234.367C182.713 237.384 185.96 239.036 189.281 239.036C191.103 239.036 192.948 238.538 194.603 237.495C199.275 234.551 200.675 228.376 197.731 223.703L171.087 181.428C168.142 176.756 161.967 175.355 157.296 178.3C152.624 181.244 151.224 187.419 154.168 192.092L180.812 234.367Z" fill="currentColor"/>
<path d="M317.421 237.498C319.076 238.539 320.919 239.036 322.739 239.036C326.061 239.036 329.309 237.382 331.21 234.363L357.826 192.088C360.768 187.414 359.366 181.241 354.692 178.297C350.016 175.356 343.844 176.76 340.901 181.432L314.286 223.707C311.344 228.382 312.748 234.555 317.421 237.498V237.498Z" fill="currentColor"/>
<path d="M508.776 382.426L491.401 351.731C488.679 346.923 482.577 345.233 477.774 347.955C472.967 350.676 471.277 356.777 473.998 361.582L491.365 392.264C492.235 393.806 492.009 395.293 491.797 396.042C491.593 396.763 491.031 398.094 489.561 398.906L462.783 413.739C460.404 415.053 457.3 414.223 456.003 411.935L449.199 399.901C449.171 399.847 449.139 399.797 449.11 399.744L378.78 275.35C377.911 273.819 378.131 272.351 378.339 271.612C378.54 270.897 379.098 269.576 380.568 268.763L407.378 253.927C409.787 252.593 412.816 253.403 414.133 255.737L429.807 283.43C432.528 288.237 438.631 289.926 443.435 287.207C448.242 284.487 449.932 278.385 447.212 273.579L431.546 245.898C424.864 234.052 409.681 229.803 397.699 236.426L370.891 251.262C365.09 254.468 360.898 259.767 359.09 266.186C357.384 272.238 357.994 278.556 360.787 284.101L346.02 288.381C339.729 290.201 335.91 291.188 333.791 291.188C333.782 291.188 333.774 291.188 333.766 291.188C332.307 291.183 330.716 290.626 326.175 288.906C324.115 288.126 321.55 287.154 318.397 286.054L292.232 276.907C277.761 271.853 271.235 272.125 261.779 272.988L217.162 276.981C196.823 278.783 183.856 283.371 176.698 291.328L151.272 283.961C154.008 278.44 154.595 272.183 152.905 266.186C151.097 259.771 146.909 254.473 141.114 251.267L114.32 236.424C102.328 229.795 87.1375 234.046 80.4545 245.889L3.25048 382.412C-0.0545249 388.231 -0.872525 394.999 0.949475 401.47C2.75948 407.896 6.94948 413.2 12.7395 416.402L39.5335 431.243C43.3645 433.361 47.5265 434.367 51.6335 434.367C60.3585 434.367 68.8405 429.828 73.3995 421.779L76.2305 416.771C83.9565 420.172 90.4435 425.113 94.8645 430.963C90.5465 436.009 87.8265 442.236 87.0635 449.009C86.0555 457.966 88.5855 466.754 94.1875 473.759C99.7415 480.704 107.683 485.086 116.564 486.118C115.624 494.999 118.164 503.701 123.723 510.628C129.469 517.812 137.59 522.003 146.085 522.992C145.149 531.86 147.68 540.554 153.222 547.485C158.773 554.445 166.717 558.836 175.607 559.868C174.666 568.756 177.206 577.463 182.765 584.391C189.391 592.675 199.173 596.988 209.048 596.987C216.42 596.987 223.844 594.583 230.042 589.633L250.98 572.879C252.643 571.552 254.154 570.085 255.513 568.505L267.473 578.059C273.658 582.995 281.065 585.393 288.427 585.392C298.307 585.391 308.105 581.073 314.74 572.781C318.237 568.409 320.451 563.419 321.451 558.268C324.948 559.478 328.64 560.103 332.404 560.102C333.666 560.102 334.936 560.032 336.21 559.891C345.17 558.896 353.182 554.49 358.749 547.508C364.318 540.57 366.858 531.869 365.919 522.989C374.408 521.998 382.533 517.808 388.296 510.627C394.036 503.45 396.34 494.614 395.438 486.116C404.314 485.082 412.252 480.701 417.793 473.772C423.399 466.786 425.94 458.011 424.947 449.061C424.193 442.267 421.471 436.019 417.145 430.959C421.553 425.111 428.027 420.164 435.758 416.765L438.595 421.783C443.151 429.829 451.629 434.366 460.356 434.366C464.465 434.365 468.631 433.359 472.466 431.239L499.245 416.405C505.033 413.205 509.221 407.909 511.038 401.494C512.87 395.029 512.069 388.261 508.776 382.426V382.426ZM55.9935 411.93C54.6935 414.226 51.5865 415.054 49.2175 413.743L22.4245 398.903C20.9615 398.093 20.4035 396.767 20.1995 396.048C19.9905 395.303 19.7675 393.824 20.6495 392.274L97.8655 255.724C98.7495 254.157 100.415 253.279 102.145 253.279C102.987 253.279 103.843 253.486 104.633 253.923L131.419 268.761C131.422 268.763 131.425 268.765 131.428 268.766C132.894 269.577 133.451 270.898 133.653 271.613C133.861 272.352 134.081 273.82 133.202 275.368L55.9935 411.93ZM128.967 463.39C126.147 465.649 122.586 466.67 118.947 466.265C115.306 465.861 112.061 464.087 109.807 461.269C107.548 458.444 106.53 454.884 106.939 451.246C107.346 447.623 109.121 444.394 111.955 442.139L149.393 412.213C155.269 407.522 163.87 408.487 168.566 414.352C170.824 417.175 171.843 420.729 171.435 424.356C171.029 427.971 169.253 431.197 166.435 433.439C166.373 433.488 166.32 433.543 166.26 433.594L128.976 463.383C128.973 463.385 128.97 463.388 128.967 463.39V463.39ZM139.331 498.124C137.074 495.311 136.054 491.766 136.457 488.142C136.86 484.515 138.637 481.271 141.459 479.008L141.462 479.006C141.464 479.005 141.466 479.003 141.468 479.002C141.469 479.002 141.469 479.001 141.47 479L195.396 435.916C201.271 431.224 209.874 432.182 214.569 438.055C216.824 440.874 217.843 444.424 217.44 448.05C217.036 451.68 215.254 454.924 212.425 457.184L158.513 500.252C152.631 504.946 144.031 503.999 139.331 498.124V498.124ZM177.989 540.014C174.349 539.61 171.107 537.834 168.85 535.004C166.595 532.185 165.576 528.635 165.979 525.009C166.383 521.382 168.162 518.141 170.987 515.881C170.989 515.879 170.992 515.877 170.994 515.875L208.312 486.063C208.356 486.029 208.404 486 208.448 485.965C214.308 481.274 222.908 482.229 227.608 488.087C229.867 490.911 230.886 494.471 230.477 498.109C230.069 501.732 228.294 504.961 225.461 507.216L188.024 537.141C185.195 539.4 181.63 540.416 177.989 540.014V540.014ZM243.507 548.132C243.102 551.759 241.325 554.996 238.495 557.256L217.556 574.013C211.673 578.708 203.073 577.763 198.375 571.887C196.118 569.076 195.097 565.528 195.5 561.897C195.903 558.266 197.678 555.027 200.495 552.777C200.498 552.775 200.502 552.772 200.505 552.77L221.439 536.036C221.45 536.027 221.462 536.02 221.473 536.012C227.35 531.322 235.951 532.283 240.647 538.151C242.896 540.965 243.913 544.508 243.507 548.132V548.132ZM402.185 461.268C399.931 464.086 396.686 465.861 393.046 466.265C389.409 466.674 385.845 465.65 383.025 463.39C383.024 463.389 383.022 463.388 383.02 463.387C383.019 463.386 383.017 463.385 383.016 463.384L356.258 442.005C351.942 438.557 345.65 439.261 342.204 443.575C338.757 447.889 339.46 454.182 343.774 457.629L370.523 479.001C376.391 483.7 377.358 492.284 372.688 498.123C367.976 503.995 359.375 504.95 353.503 500.247L324.478 477.085C320.162 473.641 313.87 474.348 310.425 478.664C306.981 482.98 307.687 489.272 312.004 492.717L341.016 515.868C343.843 518.132 345.621 521.378 346.025 525.009C346.428 528.633 345.408 532.179 343.132 535.014C340.883 537.834 337.642 539.609 334.003 540.014C330.36 540.415 326.795 539.398 323.977 537.149L309.534 525.599C309.509 525.579 309.487 525.558 309.462 525.538L297.26 515.783L294.979 513.959C290.664 510.509 284.372 511.21 280.924 515.522C280.493 516.062 280.126 516.632 279.824 517.224C278.376 520.054 278.4 523.373 279.759 526.156C280.388 527.445 281.294 528.622 282.488 529.577L297.009 541.19C302.838 545.897 303.791 554.452 299.124 560.287C294.427 566.158 285.825 567.117 279.952 562.432L263.477 549.27C264.163 540.711 261.627 532.364 256.263 525.657C252.929 521.49 248.794 518.334 244.253 516.217C247.581 511.6 249.694 506.176 250.35 500.344C251.358 491.388 248.828 482.6 243.216 475.583C239.881 471.427 235.751 468.278 231.219 466.166C234.553 461.535 236.666 456.1 237.316 450.26C238.311 441.324 235.779 432.553 230.187 425.56C220.565 413.53 204.293 409.873 190.75 415.621C189.666 410.643 187.451 405.947 184.181 401.858C172.603 387.39 151.401 385.023 136.91 396.585L110.134 417.988C104.079 410.261 95.8485 403.853 86.1165 399.283L141.195 301.862L170.521 310.359C170.655 311.928 170.909 313.578 171.334 315.326C178.433 344.514 205.307 358.114 241.47 350.827C271.94 344.696 284.484 353.829 309.467 372.022C312.059 373.909 314.753 375.87 317.572 377.889C335.539 390.779 354.738 405.93 367.611 416.199L400.072 442.141C402.892 444.391 404.666 447.631 405.069 451.265C405.472 454.896 404.452 458.444 402.185 461.268V461.268ZM401.874 417.982L380.091 400.573C367.04 390.162 347.569 374.799 329.224 361.637C326.444 359.646 323.793 357.715 321.241 355.857C295.335 336.992 276.612 323.362 237.524 331.223C225.56 333.634 197.056 336.453 190.769 310.605C189.883 306.956 190.783 305.702 191.166 305.167C192.503 303.303 197.883 298.766 218.932 296.902L263.595 292.905C270.873 292.241 274.524 291.907 285.632 295.787L311.8 304.935C314.709 305.951 317.036 306.831 319.089 307.609C331.689 312.382 335.027 312.381 351.58 307.59L370.872 302L425.878 399.289C416.143 403.856 407.919 410.259 401.874 417.982Z" fill="currentColor"/>
<path d="M471.5 16V239M584 127.5H359" stroke="currentColor" stroke-width="32" stroke-linecap="round" stroke-linejoin="round"/>
</svg>
