<?xml version="1.0" encoding="UTF-8"?>
<!DOCTYPE svg PUBLIC "-//W3C//DTD SVG 1.1//EN" "http://www.w3.org/Graphics/SVG/1.1/DTD/svg11.dtd">
<!-- Creator: CorelDRAW 2020 (64 Bit) -->
<svg xmlns="http://www.w3.org/2000/svg" xml:space="preserve" width="121.444mm" height="138.033mm" version="1.1" style="shape-rendering:geometricPrecision; text-rendering:geometricPrecision; image-rendering:optimizeQuality; fill-rule:evenodd; clip-rule:evenodd"
viewBox="0 0 7389.6 8399"
 xmlns:xlink="http://www.w3.org/1999/xlink"
 xmlns:xodm="http://www.corel.com/coreldraw/odm/2003">
 <defs>
 </defs>
 <g id="Camada_x0020_1">
  <metadata id="CorelCorpID_0Corel-Layer"/>
  <path fill="currentColor" d="M3088.65 4394.18c-79.04,-52.93 -949.03,-940.01 -1095.91,-1086.89 -168.51,-168.51 -229.2,-302.16 -491.58,-302.16 -190.31,0 -342.23,207.22 -509.62,374.32 -85.24,85.08 -149.41,131.76 -179.3,273.18 -26.23,124.11 18.38,244.36 97.65,322.61l2462.89 2461.94c145.65,145.91 170.33,171.99 318.98,175.43l0 0.13 3.04 -0.07 3.04 0.07 0 -0.13c148.66,-3.44 173.33,-29.52 318.98,-175.43l2462.89 -2461.94c79.27,-78.25 123.87,-198.5 97.65,-322.61 -29.89,-141.42 -94.06,-188.09 -179.3,-273.18 -167.39,-167.1 -319.31,-374.32 -509.62,-374.32 -262.39,0 -323.07,133.65 -491.58,302.16 -146.88,146.88 -1016.87,1033.96 -1095.91,1086.89l0.57 -4052c-7.92,-180.47 -160.02,-342.18 -343.32,-342.18l-260.36 0 -6.08 0 -260.36 0c-183.3,0 -335.4,161.72 -343.32,342.18l0.57 4052zm-2750.62 2782.89l6713.55 0c185.83,0 338.03,152.13 338.03,338.08l0 545.76c0,185.95 -152.2,338.08 -338.03,338.08l-6713.55 0c-185.83,0 -338.03,-152.13 -338.03,-338.08l0 -545.76c0,-185.95 152.2,-338.08 338.03,-338.08z"/>
 </g>
</svg>
