<?xml version="1.0" encoding="utf-8"?>
<svg viewBox="0 0 640 512" xmlns="http://www.w3.org/2000/svg">
  <path d="M 523.292 118.537 C 569.016 160.249 599.597 209.36 614.056 244.535 C 617.281 252.128 617.281 260.585 614.056 268.178 C 599.597 302.489 569.016 351.601 523.292 394.177 C 477.275 436.272 414.062 471.64 335.118 471.64 C 256.175 471.64 192.962 436.272 146.964 394.177 C 101.24 351.601 70.678 302.489 56.142 268.178 C 52.936 260.585 52.936 252.128 56.142 244.535 C 70.678 209.36 101.24 160.249 146.964 118.537 C 192.962 76.48 256.175 41.074 335.118 41.074 C 414.062 41.074 477.275 76.48 523.292 118.537 Z M 335.118 117.961 C 257.445 117.961 194.427 179.95 194.427 256.357 C 194.427 332.764 257.445 394.753 335.118 394.753 C 412.792 394.753 475.809 332.764 475.809 256.357 C 475.809 179.95 412.792 117.961 335.118 117.961 Z" style=""/>
  <path d="M 327.634 163.202 C 330.369 162.914 333.105 162.817 335.84 162.817 C 387.623 162.817 429.634 203.279 429.634 255.082 C 429.634 306.02 387.623 347.346 335.84 347.346 C 283.179 347.346 242.046 306.02 242.046 255.082 C 242.046 252.391 242.145 249.699 242.437 247.009 C 251.524 251.333 262.076 255.082 273.311 255.082 C 307.8 255.082 335.84 227.499 335.84 193.572 C 335.84 182.52 332.029 172.14 327.634 163.202 Z" style=""/>
</svg>