<?xml version="1.0" encoding="utf-8"?>
<svg viewBox="0 0 640 512" xmlns="http://www.w3.org/2000/svg">
  <path fill="currentColor" d="M 408.424 461.428 L 76.983 202.617 C 84.757 189.37 94.027 175.44 104.793 161.511 L 459.859 440.096 C 443.822 448.765 426.71 455.973 408.424 461.428 Z M 57.24 265.542 C 54.58 259.211 54.121 252.1 55.891 245.574 L 345.451 471.558 C 342.42 471.656 339.486 471.753 336.455 471.753 C 257.445 471.753 194.178 435.907 148.121 393.243 C 102.378 350.091 71.791 300.316 57.24 265.542 Z" style=""/>
  <path d="M 156.049 98.196 C 199.476 64.377 255.156 38.624 322.012 38.624 C 401.219 38.624 464.644 74.738 510.815 117.636 C 556.693 160.18 587.376 210.273 601.884 246.151 C 605.119 253.895 605.119 262.522 601.884 270.266 C 588.748 301.929 562.378 346.533 523.559 386.332 L 626.685 467.108 C 636.88 475.146 638.743 489.948 630.704 500.143 C 622.666 510.338 607.864 512.201 597.669 504.163 L 17.335 49.3 C 7.108 41.281 5.315 26.498 13.331 16.27 C 21.348 6.044 36.131 4.251 46.365 12.266 L 156.049 98.196 Z M 227.022 153.808 L 315.542 223.212 C 319.659 214.88 322.012 205.469 322.012 194.588 C 322.012 184.197 318.189 173.61 313.777 164.493 C 316.522 164.199 319.267 163.219 322.012 163.219 C 373.967 163.219 416.119 205.371 416.119 257.326 C 416.119 271.639 413.277 284.382 407.395 295.95 L 446.116 325.554 C 456.997 305.557 463.173 282.618 463.173 257.326 C 463.173 180.276 399.945 116.165 322.012 116.165 C 285.447 116.165 252.019 130.967 227.022 153.808 Z" style=""/>
</svg>
