<svg width="20" height="18" viewBox="0 0 20 18" fill="none" xmlns="http://www.w3.org/2000/svg">
<path fill-rule="evenodd" clip-rule="evenodd" d="M3.52847 1H16.6757C18.0663 1 19.2041 2.13787 19.2041 3.52847V10.8605C19.2041 12.2511 18.0663 13.389 16.6757 13.389H12.6669L10.3958 17.0334C10.1922 17.3602 9.87616 17.3875 9.69326 17.0942L7.3844 13.389H3.52847C2.13787 13.389 1 12.2511 1 10.8605V3.52847C1 2.13787 2.13771 1 3.52847 1V1Z" stroke="currentColor" stroke-width="1.00007" stroke-miterlimit="22.9256"/>
<path fill-rule="evenodd" clip-rule="evenodd" d="M2.99707 5.2526H4.10756V6.50882H5.32351V5.2526H6.43898V8.85034H5.32351V7.39317H4.10756V8.85034H2.99707V5.2526ZM7.17759 5.2526H10.1521V6.02139H8.29306V6.59421H10.0165V7.32785H8.29306V8.03629H10.2073V8.85034H7.17759V5.2526V5.2526ZM10.8061 5.2526H11.9165V7.96599H13.655V8.85034H10.806V5.2526H10.8061ZM14.1527 5.2526H16.0018C16.4046 5.2526 16.7061 5.34809 16.907 5.53986C17.1072 5.73163 17.2076 6.00459 17.2076 6.35889C17.2076 6.72237 17.098 7.00714 16.8793 7.21136C16.6608 7.4165 16.3266 7.51869 15.8777 7.51869H15.268V8.85019H14.1525V5.25244L14.1527 5.2526ZM15.2682 6.79018H15.5421C15.7581 6.79018 15.9097 6.75254 15.9968 6.67804C16.0839 6.60354 16.1275 6.50804 16.1275 6.39171C16.1275 6.27864 16.0898 6.18314 16.0136 6.10444C15.9382 6.02559 15.7959 5.98639 15.5865 5.98639H15.2682V6.79033V6.79018Z" fill="currentColor" stroke="currentColor" stroke-width="0.200013" stroke-miterlimit="22.9256"/>
</svg>
