<?xml version="1.0" encoding="UTF-8"?>
<!DOCTYPE svg PUBLIC "-//W3C//DTD SVG 1.1//EN" "http://www.w3.org/Graphics/SVG/1.1/DTD/svg11.dtd">
<!-- Creator: CorelDRAW 2020 (64 Bit) -->
<svg xmlns="http://www.w3.org/2000/svg" xml:space="preserve" width="227.089mm" height="201.999mm" version="1.1" style="shape-rendering:geometricPrecision; text-rendering:geometricPrecision; image-rendering:optimizeQuality; fill-rule:evenodd; clip-rule:evenodd"
viewBox="0 0 22541.7 20051.09"
 xmlns:xlink="http://www.w3.org/1999/xlink"
 xmlns:xodm="http://www.corel.com/coreldraw/odm/2003">
 <defs>
  <style type="text/css">
   <![CDATA[
    .str0 {stroke:currentColor;stroke-width:1295.67;stroke-miterlimit:22.9256}
    .fil0 {fill:none}
   ]]>
  </style>
 </defs>
 <g id="Camada_x0020_1">
  <metadata id="CorelCorpID_0Corel-Layer"/>
  <path class="fil0 str0" d="M11270.85 13553.67l1265.72 0c626.22,0 1138.58,512.37 1138.58,1138.59l0 3016.08 0.03 0 0 313.1c0,760.01 621.81,1381.81 1381.78,1381.81l3058.37 0c759.97,0 1381.78,-621.8 1381.78,-1381.81l0 -6835.14 1003.94 0c1307.56,0 1864.98,-1245.02 921.2,-2063.47l-1978.09 -1715.37 0 -4553.37c0,-547.21 -447.68,-994.9 -994.89,-994.9l-1411.42 0c-547.21,0 -994.9,447.69 -994.9,994.9l0 1603.85 -4053.7 -3515.32c-303.95,-277.9 -474.35,-293.24 -718.4,-294.77 -244.05,1.53 -414.46,16.87 -718.4,294.77l-9433 8180.21c-943.79,818.45 -386.36,2063.47 921.2,2063.47l1003.94 0 0 6835.14c0,760.01 621.81,1381.81 1381.78,1381.81l3058.37 0c759.97,0 1381.78,-621.8 1381.78,-1381.81l0 -313.1 0.03 0 0 -3016.08c0,-626.22 512.36,-1138.59 1138.58,-1138.59l1265.72 0z"/>
 </g>
</svg>
