<svg width="229" height="229" viewBox="0 0 229 229" fill="none" xmlns="http://www.w3.org/2000/svg">
<path d="M89.8364 145.739C92.6347 156.927 102.69 164.779 114.225 164.779C128.106 164.779 139.362 153.522 139.362 139.642C139.362 125.761 128.106 114.505 114.225 114.505M137.017 85.3729C134.414 74.9282 125.039 67.5926 114.273 67.582C101.314 67.5715 90.8008 78.0637 90.7903 91.0222C90.7798 103.981 101.272 114.494 114.23 114.505M114.246 67.5821V51.9518M114.246 164.779V180.414M217.366 114.183C217.366 171.169 171.169 217.366 114.183 217.366C57.1966 217.366 11 171.169 11 114.183C11 57.1966 57.1966 11 114.183 11C171.169 11 217.366 57.1966 217.366 114.183Z" stroke="currentColor" stroke-width="21.3322" stroke-miterlimit="22.9256" stroke-linecap="round"/>
</svg>
