<svg width="93" height="105" viewBox="0 0 93 105" fill="none" xmlns="http://www.w3.org/2000/svg">
<path fill-rule="evenodd" clip-rule="evenodd" d="M13.1311 0H56.5671L93 40.9651V89.4998C93 97.7878 87.091 104.569 79.8689 104.569H13.1311C5.90896 104.569 0 97.7878 0 89.4998V15.069C0 6.78098 5.90896 0 13.1311 0V0Z" fill="#EF4B4F"/>
<path fill-rule="evenodd" clip-rule="evenodd" d="M56.567 0L93 40.9651H63.8476C59.8432 40.9651 56.567 37.2053 56.567 32.6099V0V0Z" fill="#F38384"/>
<path d="M21.372 74.8359V57.3814H28.2584C29.5823 57.3814 30.7101 57.6342 31.6419 58.1399C32.5737 58.6399 33.284 59.3359 33.7726 60.228C34.2669 61.1143 34.5141 62.1371 34.5141 63.2962C34.5141 64.4553 34.2641 65.478 33.7641 66.3643C33.2641 67.2507 32.5396 67.9411 31.5908 68.4354C30.6476 68.9297 29.5055 69.1768 28.1646 69.1768H23.7754V66.2195H27.568C28.2783 66.2195 28.8635 66.0973 29.3237 65.853C29.7896 65.603 30.1362 65.2592 30.3635 64.8217C30.5965 64.3786 30.7129 63.87 30.7129 63.2962C30.7129 62.7166 30.5965 62.2109 30.3635 61.7791C30.1362 61.3416 29.7896 61.0036 29.3237 60.7649C28.8578 60.5206 28.2669 60.3984 27.551 60.3984H25.0624V74.8359H21.372ZM43.0986 74.8359H36.9111V57.3814H43.1497C44.9054 57.3814 46.4168 57.7308 47.6838 58.4297C48.9509 59.1229 49.9253 60.12 50.6071 61.4212C51.2946 62.7223 51.6384 64.2791 51.6384 66.0916C51.6384 67.9098 51.2946 69.4723 50.6071 70.7791C49.9253 72.0859 48.9452 73.0888 47.6668 73.7876C46.394 74.4865 44.8713 74.8359 43.0986 74.8359ZM40.6014 71.674H42.9452C44.0361 71.674 44.9537 71.4808 45.698 71.0945C46.448 70.7024 47.0105 70.0973 47.3855 69.2791C47.7662 68.4553 47.9565 67.3928 47.9565 66.0916C47.9565 64.8018 47.7662 63.7479 47.3855 62.9297C47.0105 62.1115 46.4509 61.5092 45.7065 61.1229C44.9622 60.7365 44.0446 60.5433 42.9537 60.5433H40.6014V71.674ZM54.372 74.8359V57.3814H65.9288V60.424H58.0624V64.5831H65.1618V67.6257H58.0624V74.8359H54.372Z" fill="#FEFEFE"/>
<path d="M21.372 74.8359H21.3339V74.874H21.372V74.8359ZM21.372 57.3814V57.3433H21.3339V57.3814H21.372ZM31.6419 58.1399L31.6237 58.1734L31.6239 58.1735L31.6419 58.1399ZM33.7726 60.228L33.7392 60.2463L33.7393 60.2465L33.7726 60.228ZM31.5908 68.4354L31.5732 68.4016L31.5731 68.4016L31.5908 68.4354ZM23.7754 69.1768H23.7373V69.2149H23.7754V69.1768ZM23.7754 66.2195V66.1814H23.7373V66.2195H23.7754ZM29.3237 65.853L29.3416 65.8866L29.3417 65.8866L29.3237 65.853ZM30.3635 64.8217L30.3298 64.804L30.3297 64.8042L30.3635 64.8217ZM30.3635 61.7791L30.3297 61.7967L30.33 61.7972L30.3635 61.7791ZM29.3237 60.7649L29.306 60.7987L29.3064 60.7988L29.3237 60.7649ZM25.0624 60.3984V60.3603H25.0243V60.3984H25.0624ZM25.0624 74.8359V74.874H25.1005V74.8359H25.0624ZM21.4101 74.8359V57.3814H21.3339V74.8359H21.4101ZM21.372 57.4195H28.2584V57.3433H21.372V57.4195ZM28.2584 57.4195C29.5775 57.4195 30.6987 57.6714 31.6237 58.1734L31.6601 58.1064C30.7215 57.5971 29.587 57.3433 28.2584 57.3433V57.4195ZM31.6239 58.1735C32.5495 58.6701 33.2542 59.361 33.7392 60.2463L33.806 60.2097C33.3137 59.3109 32.598 58.6097 31.6599 58.1063L31.6239 58.1735ZM33.7393 60.2465C34.23 61.1265 34.476 62.1426 34.476 63.2962H34.5522C34.5522 62.1315 34.3038 61.1022 33.8059 60.2094L33.7393 60.2465ZM34.476 63.2962C34.476 64.4496 34.2272 65.4657 33.7309 66.3456L33.7973 66.3831C34.3009 65.4902 34.5522 64.4609 34.5522 63.2962H34.476ZM33.7309 66.3456C33.2347 67.2252 32.5158 67.9105 31.5732 68.4016L31.6084 68.4692C32.5634 67.9716 33.2934 67.2762 33.7973 66.3831L33.7309 66.3456ZM31.5731 68.4016C30.6366 68.8924 29.501 69.1387 28.1646 69.1387V69.2149C29.5101 69.2149 30.6586 68.9669 31.6085 68.4691L31.5731 68.4016ZM28.1646 69.1387H23.7754V69.2149H28.1646V69.1387ZM23.8135 69.1768V66.2195H23.7373V69.1768H23.8135ZM23.7754 66.2576H27.568V66.1814H23.7754V66.2576ZM27.568 66.2576C28.2824 66.2576 28.8742 66.1347 29.3416 65.8866L29.3059 65.8193C28.8528 66.0599 28.2742 66.1814 27.568 66.1814V66.2576ZM29.3417 65.8866C29.8139 65.6332 30.1662 65.2841 30.3973 64.8393L30.3297 64.8042C30.1062 65.2344 29.7654 65.5728 29.3057 65.8194L29.3417 65.8866ZM30.3972 64.8395C30.6335 64.3901 30.751 63.8753 30.751 63.2962H30.6748C30.6748 63.8648 30.5595 64.367 30.3298 64.804L30.3972 64.8395ZM30.751 63.2962C30.751 62.7114 30.6335 62.1993 30.397 61.761L30.33 61.7972C30.5594 62.2225 30.6748 62.7218 30.6748 63.2962H30.751ZM30.3973 61.7616C30.1662 61.3166 29.8136 60.973 29.3411 60.731L29.3064 60.7988C29.7657 61.0341 30.1063 61.3667 30.3297 61.7967L30.3973 61.7616ZM29.3414 60.7312C28.8684 60.4831 28.271 60.3603 27.551 60.3603V60.4365C28.2629 60.4365 28.8472 60.558 29.306 60.7987L29.3414 60.7312ZM27.551 60.3603H25.0624V60.4365H27.551V60.3603ZM25.0243 60.3984V74.8359H25.1005V60.3984H25.0243ZM25.0624 74.7978H21.372V74.874H25.0624V74.7978ZM36.9111 74.8359H36.873V74.874H36.9111V74.8359ZM36.9111 57.3814V57.3433H36.873V57.3814H36.9111ZM47.6838 58.4297L47.6654 58.463L47.6655 58.4631L47.6838 58.4297ZM50.6071 61.4212L50.5734 61.4388L50.5734 61.439L50.6071 61.4212ZM50.6071 70.7791L50.5734 70.7614L50.5733 70.7615L50.6071 70.7791ZM47.6668 73.7876L47.6485 73.7542L47.6484 73.7542L47.6668 73.7876ZM40.6014 71.674H40.5633V71.7121H40.6014V71.674ZM45.698 71.0945L45.7156 71.1283L45.7157 71.1282L45.698 71.0945ZM47.3855 69.2791L47.3509 69.2631L47.3509 69.2632L47.3855 69.2791ZM47.3855 62.9297L47.3509 62.9456L47.351 62.9458L47.3855 62.9297ZM45.7065 61.1229L45.7241 61.0891L45.7241 61.0891L45.7065 61.1229ZM40.6014 60.5433V60.5052H40.5633V60.5433H40.6014ZM43.0986 74.7978H36.9111V74.874H43.0986V74.7978ZM36.9492 74.8359V57.3814H36.873V74.8359H36.9492ZM36.9111 57.4195H43.1497V57.3433H36.9111V57.4195ZM43.1497 57.4195C44.9003 57.4195 46.4051 57.7679 47.6654 58.463L47.7022 58.3963C46.4285 57.6938 44.9105 57.3433 43.1497 57.3433V57.4195ZM47.6655 58.4631C48.9259 59.1526 49.895 60.1442 50.5734 61.4388L50.6409 61.4035C49.9556 60.0958 48.9759 59.0931 47.7021 58.3963L47.6655 58.4631ZM50.5734 61.439C51.2574 62.7335 51.6003 64.2839 51.6003 66.0916H51.6765C51.6765 64.2743 51.3318 62.7111 50.6408 61.4034L50.5734 61.439ZM51.6003 66.0916C51.6003 67.905 51.2574 69.4612 50.5734 70.7614L50.6408 70.7969C51.3318 69.4834 51.6765 67.9146 51.6765 66.0916H51.6003ZM50.5733 70.7615C49.895 72.0617 48.9202 73.059 47.6485 73.7542L47.685 73.8211C48.9702 73.1185 49.9556 72.1102 50.6409 70.7967L50.5733 70.7615ZM47.6484 73.7542C46.3824 74.4494 44.8663 74.7978 43.0986 74.7978V74.874C44.8763 74.874 46.4056 74.5236 47.6851 73.821L47.6484 73.7542ZM40.6014 71.7121H42.9452V71.6359H40.6014V71.7121ZM42.9452 71.7121C44.0404 71.7121 44.9644 71.5182 45.7156 71.1283L45.6805 71.0606C44.943 71.4435 44.0318 71.6359 42.9452 71.6359V71.7121ZM45.7157 71.1282C46.4737 70.732 47.0419 70.1203 47.4202 69.295L47.3509 69.2632C46.9792 70.0743 46.4224 70.6728 45.6804 71.0607L45.7157 71.1282ZM47.4201 69.2951C47.8039 68.4645 47.9946 67.3961 47.9946 66.0916H47.9184C47.9184 67.3895 47.7285 68.446 47.3509 69.2631L47.4201 69.2951ZM47.9946 66.0916C47.9946 64.7985 47.8039 63.7385 47.4201 62.9136L47.351 62.9458C47.7285 63.7572 47.9184 64.8052 47.9184 66.0916H47.9946ZM47.4202 62.9138C47.0419 62.0885 46.4765 61.4796 45.7241 61.0891L45.689 61.1567C46.4252 61.5388 46.9791 62.1345 47.3509 62.9456L47.4202 62.9138ZM45.7241 61.0891C44.973 60.6992 44.0489 60.5052 42.9537 60.5052V60.5814C44.0403 60.5814 44.9515 60.7739 45.689 61.1567L45.7241 61.0891ZM42.9537 60.5052H40.6014V60.5814H42.9537V60.5052ZM40.5633 60.5433V71.674H40.6395V60.5433H40.5633ZM54.372 74.8359H54.3339V74.874H54.372V74.8359ZM54.372 57.3814V57.3433H54.3339V57.3814H54.372ZM65.9288 57.3814H65.9669V57.3433H65.9288V57.3814ZM65.9288 60.424V60.4621H65.9669V60.424H65.9288ZM58.0624 60.424V60.3859H58.0243V60.424H58.0624ZM58.0624 64.5831H58.0243V64.6212H58.0624V64.5831ZM65.1618 64.5831H65.1999V64.545H65.1618V64.5831ZM65.1618 67.6257V67.6638H65.1999V67.6257H65.1618ZM58.0624 67.6257V67.5876H58.0243V67.6257H58.0624ZM58.0624 74.8359V74.874H58.1005V74.8359H58.0624ZM54.4101 74.8359V57.3814H54.3339V74.8359H54.4101ZM54.372 57.4195H65.9288V57.3433H54.372V57.4195ZM65.8907 57.3814V60.424H65.9669V57.3814H65.8907ZM65.9288 60.3859H58.0624V60.4621H65.9288V60.3859ZM58.0243 60.424V64.5831H58.1005V60.424H58.0243ZM58.0624 64.6212H65.1618V64.545H58.0624V64.6212ZM65.1237 64.5831V67.6257H65.1999V64.5831H65.1237ZM65.1618 67.5876H58.0624V67.6638H65.1618V67.5876ZM58.0243 67.6257V74.8359H58.1005V67.6257H58.0243ZM58.0624 74.7978H54.372V74.874H58.0624V74.7978Z" fill="#FEFEFE"/>
</svg>
