<svg width="84" height="76" viewBox="0 0 84 76" fill="none" xmlns="http://www.w3.org/2000/svg">
  <path
    d="M43.4808 61.75V73.9904C43.4808 74.8125 44.0288 75.6346 44.851 75.9087C45.0337 76 45.2163 76 45.4904 76C46.1298 76 46.6779 75.726 47.0433 75.1779L54.1683 65.4952L43.4808 61.8414V61.75ZM32.5192 11.5096H28.6827V31.4231L36.1731 38.9135L21.5577 46.4952C20.8269 46.8606 20.4615 47.5914 20.4615 48.4135C20.5529 49.2356 21.0096 49.875 21.8317 50.149L38.274 55.8125L73.351 25.851L46.2211 58.5529L73.8077 67.9615C73.9904 68.0529 74.2644 68.0529 74.4471 68.0529C74.8125 68.0529 75.1779 67.9615 75.4519 67.7789C75.9087 67.5048 76.274 66.9567 76.3654 66.4087L83.5817 17.7212C83.6731 16.9904 83.399 16.2596 82.7596 15.8029C82.1202 15.3462 81.3894 15.3462 80.6586 15.6202L60.8365 26.0337C58.5529 11.3269 45.8558 0 30.601 0C13.7019 0 0 13.7019 0 30.601C0 47.5 13.7019 61.2019 30.601 61.2019C35.625 61.2019 40.375 60.0144 44.5769 57.8221L39.1875 55.9952C36.5385 56.9087 33.6154 57.3654 30.6923 57.3654C15.8942 57.3654 3.92788 45.3077 3.92788 30.601C3.92788 15.8029 15.9856 3.83654 30.6923 3.83654C44.5769 3.83654 55.9952 14.4327 57.3654 27.8606L39.8269 36.9952L32.6106 29.7788V11.4183L32.5192 11.5096Z"
    fill="currentColor"/>
</svg>
