<svg width="616" height="540" viewBox="0 0 616 540" fill="none" xmlns="http://www.w3.org/2000/svg">
<path d="M520 464C507.27 464 495.061 458.943 486.059 449.941C477.057 440.939 472 428.73 472 416V128H544C550.365 128 556.47 130.529 560.971 135.029C565.471 139.53 568 145.635 568 152V416C568 428.73 562.943 440.939 553.941 449.941C544.939 458.943 532.73 464 520 464Z" stroke="currentColor" stroke-width="32" stroke-linejoin="round"/>
<path d="M230.5 176C257.695 176 284.279 184.064 306.891 199.173C329.503 214.282 347.126 235.756 357.533 260.881C367.94 286.006 370.663 313.653 365.358 340.325C360.052 366.997 346.957 391.497 327.727 410.727C308.497 429.957 283.997 443.052 257.325 448.358C230.652 453.663 203.006 450.94 177.881 440.533C152.756 430.126 131.282 412.503 116.173 389.891C101.064 367.279 93 340.695 93 313.5C93.0023 277.033 107.49 242.061 133.275 216.275C159.061 190.49 194.033 176.002 230.5 176V176Z" stroke="currentColor" stroke-width="32" stroke-miterlimit="10"/>
<path d="M128 416L32 512" stroke="currentColor" stroke-width="32" stroke-miterlimit="10" stroke-linecap="round"/>
<path fill-rule="evenodd" clip-rule="evenodd" d="M294.016 199.717C275.584 189.694 254.457 184 232 184C220.958 184 210.237 185.377 200 187.968V128C200 123.757 201.686 119.687 204.686 116.686C207.687 113.686 211.757 112 216 112H280C284.243 112 288.313 113.686 291.314 116.686C294.314 119.687 296 123.757 296 128V192C296 194.723 295.306 197.374 294.016 199.717Z" fill="currentColor"/>
<path fill-rule="evenodd" clip-rule="evenodd" d="M176 32L175.954 32.0001C165.367 32.0308 155.222 36.2501 147.736 43.7361C140.25 51.2222 136.031 61.3667 136 71.9535L136 72V226.34C145.224 216.244 156.02 207.608 168 200.819V72.0294C168.011 69.9034 168.86 67.8672 170.364 66.3635C171.867 64.8599 173.903 64.0107 176.029 64H447.971C450.097 64.0107 452.133 64.8599 453.636 66.3635C455.14 67.8675 455.99 69.9042 456 72.0307V415.86H488V72L488 71.9535C487.969 61.3667 483.75 51.2222 476.264 43.7361C468.778 36.2501 458.633 32.0308 448.046 32.0001L448 32H176ZM168.246 427.32C156.168 420.51 145.287 411.825 136 401.66V424L136 424.048C136.044 438.874 141.954 453.08 152.437 463.563C162.92 474.046 177.126 479.956 191.952 480L192 480H520V448H192.03C185.664 447.976 179.566 445.437 175.064 440.936C171.36 437.231 168.985 432.446 168.246 427.32Z" fill="currentColor"/>
<path fill-rule="evenodd" clip-rule="evenodd" d="M344 112C335.163 112 328 119.163 328 128C328 136.837 335.163 144 344 144H408C416.837 144 424 136.837 424 128C424 119.163 416.837 112 408 112H344ZM344 176C335.163 176 328 183.163 328 192C328 200.837 335.163 208 344 208H408C416.837 208 424 200.837 424 192C424 183.163 416.837 176 408 176H344ZM360.146 336C361.365 328.849 362 321.499 362 314C362 310.635 361.872 307.3 361.621 304H408C416.837 304 424 311.163 424 320C424 328.837 416.837 336 408 336H360.146ZM338.897 240H408C416.837 240 424 247.163 424 256C424 264.837 416.837 272 408 272H355.066C351.151 260.527 345.678 249.776 338.897 240ZM329.491 400C337.902 390.472 344.938 379.702 350.289 368H408C416.837 368 424 375.163 424 384C424 392.837 416.837 400 408 400H329.491Z" fill="currentColor"/>
</svg>
